<?xml version="1.0" standalone="no"?>
<!DOCTYPE svg PUBLIC "-//W3C//DTD SVG 20010904//EN"
 "http://www.w3.org/TR/2001/REC-SVG-20010904/DTD/svg10.dtd">
<svg version="1.0" xmlns="http://www.w3.org/2000/svg"
 width="1024.000000pt" height="1024.000000pt" viewBox="0 0 1024.000000 1024.000000"
 preserveAspectRatio="xMidYMid meet">

<g transform="translate(0.000000,1024.000000) scale(0.100000,-0.100000)"
fill="#000000" stroke="none">
<path d="M0 5120 l0 -5120 5120 0 5120 0 0 3550 c0 2833 -3 3550 -12 3550 -10
0 -10 2 -1 8 18 11 12 51 -6 44 -10 -4 -11 -7 -3 -10 15 -5 5 -22 -13 -22 -9
0 -12 8 -10 21 7 36 -5 41 -31 14 -14 -15 -39 -29 -57 -32 -29 -4 -30 -3 -14
9 18 14 18 14 0 29 -16 13 -17 13 -4 -3 12 -16 11 -18 -7 -18 -16 0 -20 5 -17
20 2 12 0 18 -6 15 -5 -4 -7 -10 -4 -14 2 -5 -1 -16 -9 -26 -11 -15 -13 -16
-13 -1 0 9 4 16 8 16 5 0 4 12 -1 26 -6 14 -10 40 -10 57 0 21 -3 27 -9 19 -4
-7 -6 -25 -3 -40 5 -26 4 -26 -15 -9 -11 9 -23 14 -27 10 -4 -4 -4 1 0 11 5
13 2 17 -12 16 -34 -4 -44 0 -44 15 0 8 4 15 8 15 4 0 8 9 8 20 0 28 -5 25
-18 -12 -10 -28 -12 -30 -19 -12 -6 16 -8 14 -8 -9 l-1 -29 -32 21 c-18 11
-32 25 -30 31 1 5 -4 10 -11 10 -15 0 -50 34 -42 41 2 3 -5 11 -17 18 -11 7
-17 8 -13 2 3 -6 2 -11 -3 -11 -6 0 -12 7 -16 15 -3 8 0 15 7 15 8 0 6 4 -3
10 -25 16 -31 12 -25 -17 3 -16 3 -23 -1 -16 -3 7 -12 9 -20 6 -8 -3 -14 0
-14 7 0 6 -4 8 -10 5 -5 -3 -10 -2 -10 4 0 6 -7 8 -15 5 -8 -4 -13 -10 -10
-14 3 -5 1 -11 -4 -14 -5 -4 -12 -2 -15 3 -4 5 -2 13 4 16 8 5 7 12 -2 23 -10
14 -10 15 2 5 17 -15 34 -17 25 -3 -3 5 0 7 9 4 8 -3 19 3 25 14 8 16 7 21 -5
26 -8 3 -17 -1 -20 -9 -4 -8 -11 -15 -17 -15 -5 0 -3 8 6 18 19 20 19 62 0 62
-15 0 -35 -35 -25 -45 4 -5 2 -5 -4 -2 -6 4 -9 18 -6 32 4 21 0 25 -18 25 -19
0 -20 -2 -10 -15 11 -13 10 -14 -4 -9 -9 3 -16 10 -16 16 0 5 -5 6 -11 2 -6
-4 -9 1 -7 13 4 23 -66 98 -82 88 -6 -4 -9 3 -7 17 2 20 -2 23 -27 21 -31 -2
-55 15 -48 35 2 6 -5 12 -15 12 -14 0 -15 2 -5 9 11 7 11 9 -2 14 -9 4 -16 2
-16 -3 0 -18 -19 -10 -25 10 -4 11 -11 18 -16 14 -5 -3 -7 -9 -4 -14 10 -17
-34 -17 -50 0 -18 20 -7 33 22 24 15 -5 15 -4 3 5 -20 15 -50 14 -50 -1 0 -7
-9 2 -20 20 -11 17 -25 32 -30 32 -6 0 -8 5 -4 12 4 7 3 8 -5 4 -6 -4 -24 5
-40 21 -32 31 -45 37 -79 36 -12 -1 -22 5 -22 12 0 7 -7 16 -16 19 -11 4 -14
13 -10 30 4 18 2 24 -9 22 -17 -2 -33 -16 -18 -16 5 0 10 -6 10 -14 0 -8 -6
-12 -15 -8 -10 3 -13 1 -8 -6 5 -8 2 -10 -9 -5 -13 5 -14 7 -3 14 11 7 10 11
-1 18 -13 8 -13 12 0 27 8 9 13 20 12 23 -2 3 3 6 10 6 6 0 11 -6 9 -13 -1 -8
2 -11 8 -7 15 9 12 22 -7 30 -12 4 -24 -1 -35 -15 -15 -18 -20 -19 -39 -9 -21
11 -22 12 -5 25 10 7 24 10 32 7 8 -3 14 0 14 6 0 15 -67 14 -73 -1 -4 -8 -6
-7 -6 3 -1 12 -9 15 -32 13 -17 -2 -35 -6 -40 -9 -5 -4 -6 1 -3 9 4 10 19 16
38 17 86 3 118 7 128 17 8 8 2 9 -20 6 -18 -3 -33 0 -38 7 -5 8 -3 9 6 4 9 -6
11 -4 5 5 -6 10 -10 10 -20 -3 -10 -14 -15 -14 -36 -3 -13 7 -31 10 -39 8 -10
-4 -9 0 4 13 13 13 20 15 25 6 4 -6 15 -9 25 -5 13 5 8 11 -24 32 -25 17 -38
32 -35 41 4 10 2 11 -8 3 -10 -8 -13 -6 -14 9 -1 10 1 19 5 20 4 0 15 2 24 4
10 2 20 0 23 -5 8 -12 55 1 55 16 0 13 -20 19 -45 14 -10 -2 -29 -1 -57 2 -10
1 -18 6 -19 12 0 6 -2 19 -4 28 -2 10 4 20 13 23 28 8 37 6 37 -10 0 -8 5 -15
10 -16 15 -1 16 15 2 35 -11 15 -17 17 -35 7 -19 -10 -22 -9 -23 6 0 14 -2 15
-6 3 -3 -8 -11 -18 -17 -22 -8 -5 -7 -13 2 -28 17 -28 15 -40 -8 -40 -11 0
-20 5 -20 11 0 5 -4 8 -9 4 -15 -8 -25 15 -12 28 8 8 11 8 11 -1 0 -7 7 -12
16 -12 10 0 12 4 7 13 -4 6 -8 19 -8 27 0 9 -7 14 -19 12 -11 -2 -15 1 -11 8
4 6 -1 20 -11 31 -12 14 -13 19 -4 19 7 0 11 2 8 5 -9 9 -38 -7 -38 -21 0 -8
4 -14 9 -14 5 0 12 -8 15 -17 4 -10 4 -14 0 -10 -4 4 -13 -1 -20 -11 -12 -15
-12 -14 -7 7 5 20 3 23 -10 18 -10 -4 -24 1 -34 11 -22 22 -72 44 -83 37 -4
-3 -7 3 -5 12 2 10 4 21 4 26 1 4 6 7 12 7 5 0 8 -4 5 -8 -6 -11 11 -38 19
-30 12 11 -15 48 -35 48 -11 0 -20 -4 -20 -10 0 -5 -9 -10 -20 -10 -13 0 -18
5 -14 14 3 8 12 12 20 9 8 -3 14 0 14 6 0 6 8 8 18 5 14 -5 14 -3 -3 10 -17
14 -18 19 -7 37 8 12 9 18 3 14 -6 -3 -11 0 -11 7 0 8 -3 9 -8 3 -17 -23 -28
-12 -26 26 2 49 -23 71 -66 59 -15 -4 -34 -4 -41 1 -11 7 -11 9 3 9 26 0 31
19 11 38 -11 9 -13 13 -6 9 8 -6 19 -2 30 9 17 16 17 17 1 11 -10 -3 -20 -2
-23 4 -4 5 -11 7 -16 4 -8 -5 -13 9 -6 18 1 2 -4 11 -12 20 -19 24 2 21 24 -3
20 -22 24 -23 44 -11 8 5 10 14 6 21 -6 10 -11 9 -21 -4 -11 -16 -13 -16 -18
2 -8 25 -63 36 -63 13 0 -9 5 -19 10 -23 13 -8 19 -70 6 -62 -5 3 -7 10 -4 15
3 5 -3 19 -15 31 -12 13 -19 30 -17 40 3 11 -1 16 -14 15 -11 -1 -19 -5 -19
-9 0 -5 -9 -4 -19 2 -29 15 -34 13 -29 -15 3 -14 1 -28 -3 -31 -5 -3 -9 6 -9
20 0 14 -5 26 -12 26 -6 0 -4 7 5 18 17 19 23 37 10 29 -5 -3 -13 1 -20 8 -9
10 -8 14 9 18 14 4 19 11 15 21 -9 23 9 20 33 -6 11 -12 23 -18 27 -14 5 4 -5
19 -22 34 -31 26 -38 51 -20 65 10 9 -5 5 -40 -9 -9 -4 -15 0 -15 9 0 10 7 15
18 12 10 -2 25 1 32 5 15 9 5 12 -73 25 -26 4 -37 3 -33 -4 5 -7 -4 -7 -24 1
-20 7 -29 15 -26 24 3 8 1 14 -4 14 -5 0 -14 10 -21 21 -11 21 -11 21 19 3 17
-10 28 -22 25 -28 -4 -6 1 -5 10 3 16 12 22 8 18 -12 -1 -5 3 -6 8 -3 5 4 8
15 6 25 -2 11 3 22 11 25 20 8 8 26 -17 26 -10 0 -19 5 -19 11 0 5 4 8 9 5 5
-3 11 0 14 7 3 9 -11 12 -54 12 -33 0 -59 -4 -59 -9 0 -6 -5 -5 -12 2 -15 15
-28 15 -28 1 0 -5 4 -8 9 -4 5 3 16 -4 25 -16 8 -12 19 -18 26 -14 9 6 9 10
-1 17 -10 6 -7 7 9 3 12 -4 22 -2 22 4 0 15 24 4 37 -18 11 -18 9 -19 -28 -15
-28 3 -41 -1 -45 -11 -4 -10 -21 1 -61 41 -30 30 -63 53 -72 52 -11 -2 -15 3
-13 16 3 15 -1 18 -17 13 -12 -3 -21 -1 -21 4 0 5 5 9 11 9 5 0 7 5 4 11 -4 6
-13 8 -19 6 -7 -3 -13 1 -13 9 0 7 4 11 8 9 4 -3 10 2 13 11 4 12 2 15 -9 10
-8 -3 -15 -1 -15 5 0 6 -5 7 -12 3 -7 -4 -8 -3 -4 4 4 7 1 12 -8 12 -13 0 -14
4 -4 25 6 14 15 25 20 25 5 0 3 7 -6 15 -17 17 -30 20 -21 5 3 -5 0 -10 -8
-10 -22 0 -20 67 1 80 15 9 14 10 -5 16 -13 3 -20 11 -16 17 3 6 1 7 -5 3 -7
-4 -12 -14 -12 -22 0 -8 -4 -12 -10 -9 -5 3 -19 1 -31 -6 -15 -8 -19 -8 -15 0
4 6 2 11 -3 11 -6 0 -11 7 -11 15 0 8 -4 15 -10 15 -5 0 -10 -7 -10 -15 0 -8
-6 -12 -14 -9 -22 8 -16 42 6 36 24 -6 23 5 -2 18 -15 8 -26 7 -45 -6 -23 -15
-30 -13 -26 9 1 4 -3 17 -9 27 -9 16 -7 20 6 20 9 0 18 -9 21 -20 6 -22 18
-26 28 -10 3 6 1 10 -4 10 -20 0 -11 27 12 38 l22 11 -25 -2 c-18 -1 -24 2
-22 15 1 9 -5 18 -15 20 -15 3 -15 4 1 21 11 11 13 17 5 17 -7 0 -10 3 -7 6 4
3 18 -2 32 -11 25 -16 25 -16 14 7 -7 14 -20 23 -35 23 -12 0 -23 -3 -23 -6 0
-3 -7 -6 -16 -6 -15 0 -15 1 0 12 23 17 20 24 -6 17 -22 -5 -22 -5 -5 12 9 10
15 21 12 26 -3 4 2 10 10 14 8 3 15 11 15 18 0 10 -2 10 -9 -1 -5 -8 -14 -10
-21 -6 -9 5 -11 4 -6 -3 4 -7 3 -12 -3 -12 -5 0 -12 14 -16 31 -4 18 -15 33
-25 36 -11 3 -16 11 -13 19 3 8 -5 16 -23 20 -27 7 -27 7 -6 15 12 5 22 13 22
18 0 6 6 8 14 5 10 -4 13 0 11 13 -1 10 -9 17 -16 15 -18 -5 -29 -23 -22 -36
3 -5 1 -6 -6 -2 -6 4 -8 12 -5 18 4 6 -1 8 -16 3 -20 -6 -22 -5 -16 16 14 50
16 69 6 70 -5 1 -16 2 -22 3 -16 1 -22 66 -6 66 8 0 9 3 2 10 -12 12 -47 3
-39 -10 2 -4 -7 -5 -21 -2 -16 3 -23 9 -20 18 3 8 1 14 -3 14 -5 0 -12 -6 -14
-12 -3 -7 -6 -1 -6 15 -1 29 16 36 37 15 9 -9 12 -9 12 0 0 7 -6 15 -14 18
-11 4 -13 12 -5 30 6 16 5 23 -1 19 -11 -7 -50 29 -50 47 0 6 3 9 6 5 3 -3 16
5 28 17 11 13 27 21 34 19 7 -3 10 1 6 11 -7 19 -30 21 -38 4 -5 -10 -7 -10
-12 -1 -4 10 -765 13 -3650 13 l-3644 0 0 -5120z m7255 5090 c-3 -5 -11 -10
-16 -10 -6 0 -7 5 -4 10 3 6 11 10 16 10 6 0 7 -4 4 -10z m10 -170 c3 -5 1
-10 -4 -10 -6 0 -11 5 -11 10 0 6 2 10 4 10 3 0 8 -4 11 -10z m99 -63 c3 3 6
4 6 0 0 -3 -7 -13 -16 -21 -8 -9 -11 -16 -5 -16 6 0 11 -4 11 -10 0 -5 -7 -10
-16 -10 -10 0 -14 7 -13 23 2 12 0 28 -5 35 -7 11 -4 12 11 3 11 -6 23 -7 27
-4z m39 -70 c3 -8 -3 -14 -14 -14 -11 -1 -19 5 -19 13 0 18 26 19 33 1z m67
-177 c0 -5 -4 -10 -10 -10 -5 0 -10 5 -10 10 0 6 5 10 10 10 6 0 10 -4 10 -10z
m35 -11 c11 -17 -1 -21 -15 -4 -8 9 -8 15 -2 15 6 0 14 -5 17 -11z m-65 -15
c0 -8 -19 -13 -24 -6 -3 5 1 9 9 9 8 0 15 -2 15 -3z m73 -71 c-7 -2 -19 -2
-25 0 -7 3 -2 5 12 5 14 0 19 -2 13 -5z m31 -85 c-3 -4 -9 -8 -15 -8 -5 0 -9
4 -9 8 0 5 7 9 15 9 8 0 12 -4 9 -9z m17 -11 c-10 -9 -11 -8 -5 6 3 10 9 15
12 12 3 -3 0 -11 -7 -18z m182 -157 c-3 -11 -9 -17 -14 -14 -5 3 -9 -2 -9 -11
0 -8 -7 -18 -15 -21 -17 -7 -50 22 -35 31 5 3 10 1 10 -4 0 -6 7 -11 15 -11 8
0 15 5 15 11 0 9 26 37 37 39 0 0 -1 -9 -4 -20z m45 -176 c-1 -5 -9 -9 -16
-10 -10 -2 -11 1 -1 12 12 14 24 13 17 -2z m22 -80 c0 -8 -19 -13 -24 -6 -3 5
1 9 9 9 8 0 15 -2 15 -3z m35 -13 c3 -5 2 -12 -3 -15 -5 -3 -9 1 -9 9 0 17 3
19 12 6z m95 -45 c0 -3 -4 -8 -10 -11 -5 -3 -10 -1 -10 4 0 6 5 11 10 11 6 0
10 -2 10 -4z m-99 -23 c13 -16 12 -17 -3 -4 -10 7 -18 15 -18 17 0 8 8 3 21
-13z m34 -41 c-3 -3 -11 0 -18 7 -9 10 -8 11 6 5 10 -3 15 -9 12 -12z m152
-25 c-1 -5 -6 -8 -10 -8 -4 1 -14 1 -23 1 -8 0 -13 4 -10 8 6 11 47 10 43 -1z
m119 -69 c-1 -23 -36 -40 -36 -17 0 9 25 36 36 39 1 0 1 -10 0 -22z m-71 -18
c-3 -5 -12 -10 -18 -10 -7 0 -6 4 3 10 19 12 23 12 15 0z m42 -72 c-3 -8 -6
-5 -6 6 -1 11 2 17 5 13 3 -3 4 -12 1 -19z m48 -62 c-8 -13 -13 -25 -10 -27 2
-3 -5 -5 -15 -6 -11 -1 -23 3 -26 9 -5 8 -1 9 12 5 18 -7 18 -7 0 8 -11 8 -28
15 -38 15 -10 0 -18 5 -18 10 0 6 6 10 14 10 8 0 22 3 32 7 10 3 15 2 12 -3
-3 -5 0 -15 8 -22 15 -14 19 -5 14 27 -1 12 1 13 14 2 13 -11 14 -15 1 -35z
m89 -38 c-3 -5 5 -12 18 -17 13 -6 20 -10 15 -10 -4 -1 0 -12 9 -26 9 -14 14
-29 10 -32 -4 -4 -9 3 -13 15 -3 12 -9 19 -14 16 -5 -3 -9 0 -9 6 0 6 -11 22
-24 35 -20 20 -21 23 -6 22 10 -1 16 -5 14 -9z m-158 -40 c4 -7 3 -8 -4 -4 -7
4 -12 2 -12 -4 0 -6 -5 -8 -11 -4 -8 4 -7 9 2 15 18 11 17 11 25 -3z m94 -11
c0 -17 -2 -18 -17 -6 -14 12 -16 12 -8 0 5 -10 4 -12 -3 -7 -19 12 -14 32 8
32 13 0 20 -7 20 -19z m50 3 c-8 -5 -18 -6 -24 -3 -5 4 -1 10 10 13 24 9 34 2
14 -10z m-18 -92 c-7 -7 -12 -8 -12 -2 0 14 12 26 19 19 2 -3 -1 -11 -7 -17z
m223 2 c3 -5 -1 -10 -9 -10 -9 0 -16 5 -16 10 0 6 4 10 9 10 6 0 13 -4 16 -10z
m-35 -26 c0 -8 -19 -13 -24 -6 -3 5 1 9 9 9 8 0 15 -2 15 -3z m20 -34 c6 -11
7 -20 2 -20 -6 0 -12 9 -15 20 -3 11 -3 20 -1 20 2 0 8 -9 14 -20z m30 -48 c0
-5 -7 -9 -15 -9 -8 0 -15 4 -15 9 0 4 7 8 15 8 8 0 15 -4 15 -8z m155 -162 c3
-5 2 -10 -4 -10 -5 0 -13 5 -16 10 -3 6 -2 10 4 10 5 0 13 -4 16 -10z m116
-143 c-10 -9 -11 -8 -5 6 3 10 9 15 12 12 3 -3 0 -11 -7 -18z m110 -224 c13
-16 12 -17 -3 -4 -10 7 -18 15 -18 17 0 8 8 3 21 -13z m29 -18 c-7 -8 -18 -15
-24 -15 -6 0 -3 5 7 11 9 5 17 18 18 27 0 11 2 12 6 4 3 -7 -1 -19 -7 -27z
m-83 9 c-3 -3 -12 -4 -19 -1 -8 3 -5 6 6 6 11 1 17 -2 13 -5z m121 -19 c-3 -3
-9 2 -12 12 -6 14 -5 15 5 6 7 -7 10 -15 7 -18z m52 -65 c0 -5 -5 -10 -11 -10
-5 0 -7 5 -4 10 3 6 8 10 11 10 2 0 4 -4 4 -10z m114 -28 c3 -5 -1 -9 -9 -9
-8 0 -15 4 -15 9 0 4 4 8 9 8 6 0 12 -4 15 -8z m57 -22 c6 0 7 -4 4 -10 -10
-15 -32 -12 -39 6 -5 12 -2 15 10 10 8 -3 20 -6 25 -6z m32 -39 c-3 -11 -12
-22 -20 -26 -13 -4 -14 -3 -3 10 7 8 9 15 4 15 -7 0 15 19 23 20 0 0 -1 -9 -4
-19z m57 -66 c0 -1 -7 -8 -15 -15 -13 -11 -14 -10 -8 6 6 17 5 18 -13 4 -17
-14 -18 -14 -6 2 11 13 42 16 42 3z m90 -17 c0 -5 6 -6 13 -2 6 4 4 -2 -7 -12
-14 -15 -19 -16 -23 -5 -4 10 -7 10 -13 1 -5 -8 -9 -7 -13 5 -4 9 -3 13 3 10
6 -3 10 -2 10 3 0 5 7 9 15 9 8 0 15 -4 15 -9z m39 -15 c-3 -20 2 -34 11 -28
6 3 10 1 10 -4 0 -6 -4 -11 -10 -11 -12 0 -31 35 -23 44 8 8 13 8 12 -1z m17
-78 c1 -8 -2 -17 -7 -21 -5 -3 -8 6 -7 20 2 26 10 26 14 1z m67 -28 c4 3 7 1
7 -6 0 -8 -6 -11 -16 -7 -9 3 -20 6 -25 6 -6 0 -7 5 -4 10 5 8 11 8 19 1 7 -6
16 -8 19 -4z m47 3 c0 -5 -5 -10 -11 -10 -5 0 -7 5 -4 10 3 6 8 10 11 10 2 0
4 -4 4 -10z m-15 -50 c8 -13 -5 -13 -25 0 -13 8 -13 10 2 10 9 0 20 -4 23 -10z
m105 -100 c0 -13 -11 -13 -30 0 -12 8 -11 10 8 10 12 0 22 -4 22 -10z m186
-112 c3 -11 3 -22 0 -25 -3 -4 -6 -1 -6 5 0 7 -7 12 -15 12 -8 0 -15 6 -15 13
0 21 29 16 36 -5z m344 -196 c0 -5 -7 -9 -15 -9 -8 0 -12 4 -9 9 3 4 9 8 15 8
5 0 9 -4 9 -8z m50 -16 c0 -3 -4 -8 -10 -11 -5 -3 -10 -1 -10 4 0 6 5 11 10
11 6 0 10 -2 10 -4z m-3500 -1741 l0 -496 -122 3 -123 3 -3 493 -2 492 125 0
125 0 0 -495z m-3676 225 c95 -242 205 -524 249 -642 14 -36 23 -69 20 -72 -4
-3 -63 -6 -133 -6 l-127 0 -29 85 -29 85 -177 0 -177 0 -20 -55 c-11 -30 -23
-66 -27 -80 -5 -21 -12 -25 -44 -25 -20 0 -78 -3 -128 -6 -76 -6 -92 -4 -92 7
0 8 57 163 126 344 69 182 149 392 177 468 l52 137 133 -2 133 -3 93 -235z
m1456 101 c0 -102 -1 -101 103 -101 l57 0 0 -100 0 -100 -80 0 -80 0 0 -140
c0 -127 2 -142 20 -160 22 -22 46 -25 86 -10 35 14 40 6 49 -74 3 -33 9 -73
12 -88 5 -25 2 -28 -48 -42 -75 -23 -173 -20 -229 5 -56 25 -86 53 -113 104
-20 36 -22 59 -25 222 l-4 182 -51 3 -52 3 0 100 0 100 53 3 52 3 0 90 0 89
125 0 125 0 0 -89z m762 -110 c74 -29 146 -94 189 -173 33 -60 34 -67 34 -168
0 -95 -3 -111 -29 -167 -35 -76 -104 -144 -184 -181 -51 -24 -68 -27 -172 -27
-110 0 -118 1 -182 33 -219 108 -273 390 -113 588 35 43 127 97 191 114 62 15
201 5 266 -19z m889 14 c99 -35 173 -118 205 -229 25 -90 17 -233 -19 -311
-39 -83 -70 -121 -130 -155 -105 -60 -228 -61 -313 -1 l-41 28 -7 -150 c-4
-83 -8 -152 -9 -153 -1 -2 -54 -4 -117 -5 l-115 -2 -7 179 c-5 99 -7 316 -5
484 l2 305 123 3 122 3 0 -35 0 -35 32 29 c18 17 50 36 73 44 54 19 152 20
206 1z m1176 -15 c62 -26 134 -100 154 -156 11 -29 14 -102 14 -294 l0 -255
-117 -3 -118 -3 0 38 0 37 -27 -27 c-42 -40 -94 -57 -173 -57 -82 0 -131 17
-178 63 -51 49 -66 84 -66 159 0 59 4 73 29 109 20 28 50 53 90 73 33 17 60
31 61 31 1 0 4 14 7 32 5 27 4 31 -11 27 -14 -5 -14 -3 2 10 11 9 24 16 30 16
5 0 7 3 4 6 -3 3 -29 -5 -57 -17 -29 -12 -53 -20 -55 -18 -5 5 -56 168 -56
178 0 11 90 47 165 66 88 22 235 15 302 -15z m460 8 c5 -7 32 -78 59 -156 26
-79 50 -139 52 -134 2 6 17 2 36 -9 l33 -19 54 162 54 161 127 1 c71 1 128 -3
128 -8 0 -12 -60 -172 -146 -391 -177 -448 -192 -480 -258 -530 -51 -39 -101
-54 -182 -55 -61 0 -174 23 -174 35 0 8 50 179 54 182 2 2 24 -2 48 -8 55 -15
102 0 122 39 14 27 19 13 -141 402 -20 47 -57 139 -83 205 l-48 120 97 6 c53
3 110 6 127 7 17 1 36 -4 41 -10z m-4195 -228 l3 -230 27 -26 c36 -37 109 -38
145 -1 36 35 42 81 43 295 l0 192 125 0 125 0 0 -354 c0 -329 -1 -355 -17
-360 -10 -3 -64 -5 -120 -4 l-103 1 0 40 0 41 -33 -32 c-42 -41 -104 -62 -184
-62 -106 0 -184 45 -231 133 l-27 52 -3 273 -3 272 125 0 125 0 3 -230z m622
-1194 c9 -13 7 -20 -7 -31 -35 -26 -66 12 -35 43 15 15 28 11 42 -12z m621 -7
c0 -19 -5 -24 -24 -24 -30 0 -37 17 -15 39 22 22 39 15 39 -15z m144 22 c19
-12 6 -41 -19 -41 -11 0 -20 -2 -20 -4 0 -2 -3 -11 -6 -20 -4 -12 0 -16 15
-16 14 0 21 -6 21 -20 0 -15 -7 -20 -24 -20 -23 0 -25 -6 -37 -75 -11 -69 -14
-75 -35 -75 -27 0 -28 6 -12 84 9 46 8 60 -1 66 -14 8 -12 42 3 40 4 -1 15 14
25 32 9 18 27 38 41 45 30 15 31 15 49 4z m1480 -5 c23 -28 -17 -68 -45 -45
-17 14 -18 31 -2 47 16 16 33 15 47 -2z m-2599 -11 c17 -9 30 -20 30 -24 0 -5
3 -16 6 -24 9 -24 -37 -30 -53 -7 -22 31 -83 24 -83 -10 0 -12 12 -22 38 -30
81 -26 105 -84 56 -133 -60 -60 -174 -37 -174 35 0 25 42 23 58 -2 16 -26 68
-27 81 -2 13 24 3 37 -40 51 -78 25 -94 96 -30 138 40 27 71 29 111 8z m1600
-15 c0 -16 -8 -19 -62 -22 -60 -3 -63 -4 -66 -30 -3 -27 -2 -28 48 -28 48 0
51 -2 48 -22 -3 -20 -10 -23 -59 -26 -54 -3 -57 -4 -61 -32 -5 -30 -5 -30 48
-30 55 0 68 -8 58 -34 -5 -13 -23 -16 -91 -16 -76 0 -84 2 -79 18 3 9 15 68
27 130 l22 112 83 0 c77 0 84 -2 84 -20z m273 -18 c-2 -16 3 -22 17 -22 15 0
20 -7 20 -25 0 -20 -5 -25 -24 -25 -18 0 -25 -7 -30 -31 -10 -50 -7 -76 9 -83
24 -9 6 -36 -26 -36 -41 0 -52 26 -37 89 10 47 10 52 -8 65 -21 16 -33 10 -65
-35 -20 -28 -20 -28 1 -68 25 -50 25 -51 -5 -51 -17 0 -29 8 -37 25 -14 32
-22 31 -45 -1 -14 -19 -26 -25 -46 -22 l-27 3 40 47 41 47 -21 40 c-25 50 -25
51 5 51 17 0 29 -8 37 -25 l11 -25 26 24 c17 16 40 25 66 28 33 2 42 8 52 31
15 35 49 34 46 -1z m-1023 -7 c0 -19 5 -25 21 -25 28 0 21 -34 -8 -38 -23 -3
-33 -27 -33 -79 0 -23 5 -33 16 -33 31 0 10 -35 -23 -38 -44 -4 -56 20 -43 89
12 64 13 59 -5 59 -8 0 -15 9 -15 20 0 13 7 20 20 20 13 0 20 7 20 18 0 10 3
22 7 25 3 4 15 7 25 7 13 0 18 -7 18 -25z m-633 -39 c51 -44 28 -140 -42 -175
-25 -12 -33 -12 -57 2 -30 17 -29 19 -43 -50 -5 -23 -12 -33 -25 -33 -28 0
-29 8 -14 90 36 192 32 181 69 178 19 -1 37 1 41 5 14 14 43 7 71 -17z m118
14 c3 -5 -2 -50 -12 -100 -15 -82 -19 -90 -40 -90 -13 0 -23 6 -23 14 0 16 28
154 35 174 5 14 31 16 40 2z m185 -10 c11 -11 20 -26 20 -34 0 -20 -32 -25
-52 -8 -25 21 -63 8 -78 -27 -22 -54 25 -95 64 -56 18 19 30 19 45 2 8 -11 6
-18 -8 -31 -48 -44 -131 -33 -151 20 -13 32 2 94 28 117 43 39 102 47 132 17z
m195 -5 c17 -16 25 -35 25 -60 l0 -35 -70 0 c-70 0 -81 -5 -58 -28 15 -15 43
-15 67 0 10 6 27 8 37 4 16 -6 16 -9 -7 -32 -78 -77 -188 -2 -145 100 16 38
67 76 104 76 13 0 34 -11 47 -25z m250 13 c2 -7 -4 -51 -13 -98 -15 -74 -21
-85 -40 -88 -17 -3 -22 1 -22 20 1 49 28 161 41 169 19 12 29 11 34 -3z m1099
-9 c20 -16 26 -29 26 -60 l0 -39 -70 0 c-68 0 -70 -1 -60 -20 12 -23 41 -26
70 -8 16 10 22 10 32 0 11 -11 9 -17 -11 -33 -31 -26 -95 -25 -121 1 -39 39
-18 134 38 164 38 21 65 20 96 -5z m215 5 c22 -16 23 -21 17 -85 -8 -87 -13
-99 -43 -99 -24 0 -24 2 -17 43 14 76 11 102 -12 105 -30 4 -43 -17 -55 -87
-10 -56 -13 -61 -36 -61 -24 0 -25 2 -20 43 3 23 11 66 17 95 12 51 12 52 46
50 18 -1 36 1 40 5 12 12 38 8 63 -9z m189 0 c12 -8 22 -21 22 -29 0 -20 -32
-24 -52 -7 -18 15 -48 10 -48 -8 0 -5 17 -17 37 -25 58 -24 69 -59 33 -95 -39
-39 -140 -20 -140 26 0 16 36 19 45 4 8 -13 52 -13 60 0 3 6 -14 19 -39 30
-40 17 -46 23 -46 49 0 57 78 91 128 55z m114 -14 c-1 -14 -9 -58 -18 -97 -15
-67 -18 -73 -41 -73 -21 0 -24 4 -20 23 3 12 11 54 18 92 7 39 18 73 23 77 21
15 41 3 38 -22z m181 10 c74 -59 19 -180 -82 -180 -50 0 -81 29 -81 77 0 47
23 87 62 106 44 22 70 21 101 -3z m122 10 c4 -6 15 -5 30 2 32 15 74 2 84 -25
5 -13 5 -45 0 -73 -16 -91 -18 -94 -45 -94 -25 0 -25 2 -18 43 13 72 11 101
-9 105 -30 6 -44 -15 -57 -83 -11 -58 -15 -65 -36 -65 -14 0 -24 6 -24 14 0
16 28 154 35 174 5 14 31 16 40 2z m-1711 -17 c2 -10 8 -38 11 -62 l7 -43 32
58 c26 47 39 60 60 62 l28 4 -38 -69 c-97 -178 -118 -203 -170 -203 -25 0 -16
40 11 50 37 14 40 31 21 123 -20 103 -21 97 8 97 15 0 27 -7 30 -17z"/>
<path d="M2699 5388 c-24 -73 -45 -139 -47 -145 -3 -10 22 -13 98 -13 93 0
102 2 95 18 -3 9 -25 71 -47 137 -23 66 -44 123 -48 128 -3 4 -26 -52 -51
-125z"/>
<path d="M4905 5358 c-3 -40 -5 -131 -3 -203 3 -111 5 -130 19 -133 21 -4 339
188 339 205 0 7 -21 24 -47 39 -27 15 -101 58 -166 95 -65 38 -122 69 -126 69
-5 0 -12 -33 -16 -72z"/>
<path d="M5866 5370 c-61 -19 -96 -76 -96 -157 0 -99 66 -168 153 -160 27 2
56 12 69 23 30 27 58 93 58 139 0 50 -31 119 -62 138 -31 20 -86 28 -122 17z"/>
<path d="M7039 5382 c8 -6 11 -17 8 -27 -4 -9 -3 -14 2 -11 12 8 44 -31 36
-43 -4 -7 11 -11 44 -11 44 0 51 3 51 19 0 40 -41 71 -100 77 -37 4 -51 2 -41
-4z"/>
<path d="M6948 5283 c7 -3 16 -2 19 1 4 3 -2 6 -13 5 -11 0 -14 -3 -6 -6z"/>
<path d="M7012 5124 c-15 -10 -22 -25 -22 -49 0 -41 29 -65 78 -65 25 0 33 4
29 14 -3 8 3 22 14 32 14 13 16 20 8 31 -6 7 -9 13 -5 13 3 0 -3 9 -14 20 -24
24 -57 26 -88 4z"/>
<path d="M3906 4018 c-19 -27 -21 -59 -4 -76 32 -32 81 6 76 60 -2 27 -8 34
-30 36 -18 2 -31 -4 -42 -20z"/>
<path d="M4415 4030 c-18 -20 -17 -20 23 -20 43 0 59 21 26 34 -24 9 -29 8
-49 -14z"/>
<path d="M5769 4030 l-24 -19 48 -1 c45 0 47 1 37 20 -14 25 -31 25 -61 0z"/>
<path d="M6455 4016 c-24 -37 -16 -80 16 -84 35 -4 61 27 57 70 -2 27 -7 34
-30 36 -20 2 -31 -3 -43 -22z"/>
<path d="M7374 10208 l-19 -23 23 19 c21 18 27 26 19 26 -2 0 -12 -10 -23 -22z"/>
<path d="M7385 10129 c-4 -6 -5 -12 -2 -15 2 -3 7 2 10 11 7 17 1 20 -8 4z"/>
<path d="M7493 9931 c-1 -10 5 -18 13 -18 18 0 19 23 1 30 -7 3 -13 -3 -14
-12z"/>
<path d="M7430 9880 c0 -5 5 -10 11 -10 5 0 7 5 4 10 -3 6 -8 10 -11 10 -2 0
-4 -4 -4 -10z"/>
<path d="M7544 9756 c0 -13 4 -22 9 -19 10 6 9 31 -2 37 -5 3 -8 -5 -7 -18z"/>
<path d="M7596 9754 c-5 -14 -4 -15 9 -4 17 14 19 20 6 20 -5 0 -12 -7 -15
-16z"/>
<path d="M7575 9660 c-3 -5 -1 -10 4 -10 6 0 11 5 11 10 0 6 -2 10 -4 10 -3 0
-8 -4 -11 -10z"/>
<path d="M7689 9533 c-13 -16 -12 -17 4 -4 9 7 17 15 17 17 0 8 -8 3 -21 -13z"/>
<path d="M7637 9523 c-12 -12 -7 -22 8 -17 8 4 15 10 15 15 0 11 -14 12 -23 2z"/>
<path d="M7768 9453 c7 -3 16 -2 19 1 4 3 -2 6 -13 5 -11 0 -14 -3 -6 -6z"/>
<path d="M7796 9362 c-3 -4 4 -9 15 -9 23 -2 25 3 4 10 -8 4 -16 3 -19 -1z"/>
<path d="M7806 9278 c5 -7 9 -17 9 -22 0 -5 6 -11 13 -13 21 -8 13 26 -9 38
-17 9 -20 8 -13 -3z"/>
<path d="M7905 9250 c3 -5 8 -10 11 -10 2 0 4 5 4 10 0 6 -5 10 -11 10 -5 0
-7 -4 -4 -10z"/>
<path d="M7945 9170 c-4 -6 -10 -8 -15 -5 -5 3 -12 0 -16 -6 -5 -8 -3 -9 6 -4
10 6 12 4 7 -8 -4 -11 -1 -17 8 -17 8 0 15 3 16 8 0 4 2 15 4 25 4 19 -1 22
-10 7z"/>
<path d="M8045 9140 c3 -5 -2 -16 -11 -24 -18 -19 -15 -20 20 -6 31 11 33 26
6 33 -11 3 -18 1 -15 -3z"/>
<path d="M8100 9134 c0 -9 51 -56 56 -51 2 2 -9 16 -26 30 -16 15 -30 24 -30
21z"/>
<path d="M8151 9044 c0 -11 3 -14 6 -6 3 7 2 16 -1 19 -3 4 -6 -2 -5 -13z"/>
<path d="M8175 9040 c-3 -6 1 -7 9 -4 18 7 21 14 7 14 -6 0 -13 -4 -16 -10z"/>
<path d="M8200 8980 c0 -5 7 -7 15 -4 8 4 15 8 15 10 0 2 -7 4 -15 4 -8 0 -15
-4 -15 -10z"/>
<path d="M8230 8900 c0 -6 7 -10 15 -10 8 0 15 2 15 4 0 2 -7 6 -15 10 -8 3
-15 1 -15 -4z"/>
<path d="M8277 8843 c-12 -12 -7 -19 12 -19 15 0 17 3 9 13 -12 15 -13 15 -21
6z"/>
<path d="M8211 8799 c-1 -10 9 -19 24 -21 14 -3 25 -1 25 5 0 7 4 7 11 0 8 -8
20 -8 35 -3 13 5 32 7 41 4 16 -5 16 -4 0 6 -10 7 -42 10 -73 8 -30 -1 -56 1
-58 7 -3 6 -5 3 -5 -6z"/>
<path d="M8419 8667 c5 -5 17 -5 28 2 16 9 15 10 -9 9 -16 -2 -24 -6 -19 -11z"/>
<path d="M8390 8632 c0 -11 7 -18 20 -18 18 0 18 2 3 18 -9 10 -18 18 -20 18
-1 0 -3 -8 -3 -18z"/>
<path d="M8437 8629 c7 -7 15 -10 18 -7 3 3 -2 9 -12 12 -14 6 -15 5 -6 -5z"/>
<path d="M8517 8609 c7 -7 15 -10 18 -7 3 3 -2 9 -12 12 -14 6 -15 5 -6 -5z"/>
<path d="M8480 8580 c-8 -15 -8 -18 3 -14 8 3 14 11 14 19 0 20 -4 19 -17 -5z"/>
<path d="M8566 8423 c-6 -14 -5 -15 5 -6 7 7 10 15 7 18 -3 3 -9 -2 -12 -12z"/>
<path d="M8753 8360 c1 -15 5 -16 19 -9 23 12 23 15 -1 22 -14 3 -19 0 -18
-13z"/>
<path d="M8847 8285 c3 -8 9 -12 14 -9 12 7 11 11 -5 17 -10 4 -13 1 -9 -8z"/>
<path d="M8773 8265 c0 -8 4 -12 9 -9 5 3 6 10 3 15 -9 13 -12 11 -12 -6z"/>
<path d="M8901 8216 c-7 -8 -8 -16 -4 -19 11 -7 45 18 36 26 -10 11 -19 8 -32
-7z"/>
<path d="M8810 8170 c0 -5 5 -10 10 -10 6 0 10 5 10 10 0 6 -4 10 -10 10 -5 0
-10 -4 -10 -10z"/>
<path d="M8865 8170 c4 -6 11 -8 16 -5 14 9 11 15 -7 15 -8 0 -12 -5 -9 -10z"/>
<path d="M8845 8150 c-4 -6 -11 -7 -17 -4 -7 4 -8 2 -4 -5 6 -9 11 -9 22 0 14
11 18 19 10 19 -3 0 -8 -5 -11 -10z"/>
<path d="M8870 8130 c0 -5 5 -10 11 -10 5 0 7 5 4 10 -3 6 -8 10 -11 10 -2 0
-4 -4 -4 -10z"/>
<path d="M8996 7975 c-3 -8 -3 -15 0 -15 3 0 12 7 20 15 13 13 13 15 1 15 -8
0 -17 -7 -21 -15z"/>
<path d="M9066 7921 c-4 -6 -5 -15 -1 -20 3 -5 -3 -12 -12 -14 -15 -4 -15 -5
-2 -6 23 -1 45 27 32 40 -8 8 -13 7 -17 0z"/>
<path d="M9170 7901 c0 -6 4 -13 10 -16 6 -3 7 1 4 9 -7 18 -14 21 -14 7z"/>
<path d="M9110 7855 c-6 -7 4 -11 29 -12 26 -1 38 3 38 12 0 16 -54 16 -67 0z"/>
<path d="M9135 7830 c-3 -5 -1 -10 4 -10 6 0 11 5 11 10 0 6 -2 10 -4 10 -3 0
-8 -4 -11 -10z"/>
<path d="M9295 7750 c3 -5 8 -10 11 -10 2 0 4 5 4 10 0 6 -5 10 -11 10 -5 0
-7 -4 -4 -10z"/>
<path d="M9400 7695 c1 -5 6 -18 13 -27 12 -15 14 -15 25 2 6 11 8 22 3 25 -5
3 -12 -1 -14 -7 -4 -10 -8 -9 -16 2 -6 8 -11 11 -11 5z"/>
<path d="M9479 7661 c10 -11 19 -13 23 -7 13 18 9 24 -16 24 -22 0 -22 -2 -7
-17z"/>
<path d="M9460 7650 c0 -5 5 -10 10 -10 6 0 10 5 10 10 0 6 -4 10 -10 10 -5 0
-10 -4 -10 -10z"/>
<path d="M9517 7577 c-5 -14 0 -16 41 -10 60 7 71 17 15 11 -24 -2 -44 1 -46
6 -2 6 -6 2 -10 -7z"/>
<path d="M9630 7580 c-9 -6 -10 -10 -3 -10 6 0 15 5 18 10 8 12 4 12 -15 0z"/>
<path d="M9576 7548 c3 -5 10 -6 15 -3 13 9 11 12 -6 12 -8 0 -12 -4 -9 -9z"/>
<path d="M9670 7540 c0 -11 2 -20 4 -20 2 0 6 9 9 20 3 11 1 20 -4 20 -5 0 -9
-9 -9 -20z"/>
<path d="M9605 7540 c-4 -6 -4 -10 -1 -10 2 0 11 -3 20 -6 9 -3 16 -2 16 4 0
14 -28 23 -35 12z"/>
<path d="M9550 7530 c0 -5 5 -10 11 -10 5 0 7 5 4 10 -3 6 -8 10 -11 10 -2 0
-4 -4 -4 -10z"/>
<path d="M9678 7494 c-8 -8 3 -44 14 -44 5 0 4 8 -1 19 -6 10 -7 21 -4 25 3 3
4 6 1 6 -2 0 -7 -3 -10 -6z"/>
<path d="M9743 7425 c0 -7 6 -11 14 -8 7 3 13 6 13 8 0 2 -6 5 -13 8 -8 3 -14
-1 -14 -8z"/>
<path d="M9822 7353 c-6 -3 -10 -9 -6 -14 3 -5 0 -9 -5 -9 -6 0 -11 -4 -11 -8
0 -12 43 -9 52 3 15 20 -3 37 -30 28z m23 -13 c3 -5 1 -10 -4 -10 -6 0 -11 5
-11 10 0 6 2 10 4 10 3 0 8 -4 11 -10z"/>
<path d="M9877 7343 c3 -7 13 -13 22 -12 10 0 11 2 3 6 -6 2 -10 8 -8 12 3 4
-1 8 -8 8 -8 0 -12 -6 -9 -14z"/>
<path d="M9846 7292 c-3 -5 1 -18 9 -28 14 -18 14 -18 15 3 0 23 -15 39 -24
25z"/>
<path d="M10066 7211 c-14 -5 -16 -10 -8 -15 7 -4 12 -4 12 0 0 3 7 1 15 -6
10 -9 15 -9 15 -1 0 6 -6 11 -12 11 -9 0 -8 4 2 10 18 11 3 12 -24 1z"/>
<path d="M10135 7169 c-4 -6 -5 -12 -2 -15 2 -3 7 2 10 11 7 17 1 20 -8 4z"/>
</g>
</svg>
